<mxfile host="app.diagrams.net" modified="2024-01-06T02:25:07.706Z" agent="Mozilla/5.0 (Macintosh; Intel Mac OS X 10.15; rv:121.0) Gecko/20100101 Firefox/121.0" etag="yB3iFyWV4PbBFvtNW2mw" version="22.1.17" type="device">
  <diagram id="C5RBs43oDa-KdzZeNtuy" name="Page-1">
    <mxGraphModel dx="1193" dy="681" grid="1" gridSize="10" guides="1" tooltips="1" connect="1" arrows="1" fold="1" page="1" pageScale="1" pageWidth="827" pageHeight="1169" math="0" shadow="0">
      <root>
        <mxCell id="WIyWlLk6GJQsqaUBKTNV-0" />
        <mxCell id="WIyWlLk6GJQsqaUBKTNV-1" parent="WIyWlLk6GJQsqaUBKTNV-0" />
        <mxCell id="D-rWgnDU7CSgSsyEETpr-2" style="edgeStyle=orthogonalEdgeStyle;rounded=0;orthogonalLoop=1;jettySize=auto;html=1;entryX=0.5;entryY=0;entryDx=0;entryDy=0;fontColor=#727272;fillColor=#f5f5f5;strokeColor=#666666;" edge="1" parent="WIyWlLk6GJQsqaUBKTNV-1" source="D-rWgnDU7CSgSsyEETpr-0" target="D-rWgnDU7CSgSsyEETpr-1">
          <mxGeometry relative="1" as="geometry" />
        </mxCell>
        <mxCell id="D-rWgnDU7CSgSsyEETpr-0" value="SENDUIPI" style="rounded=1;whiteSpace=wrap;html=1;fillColor=#dae8fc;strokeColor=#6c8ebf;fontColor=#727272;" vertex="1" parent="WIyWlLk6GJQsqaUBKTNV-1">
          <mxGeometry x="220" y="130" width="100" height="40" as="geometry" />
        </mxCell>
        <mxCell id="D-rWgnDU7CSgSsyEETpr-4" style="edgeStyle=orthogonalEdgeStyle;rounded=0;orthogonalLoop=1;jettySize=auto;html=1;entryX=0.5;entryY=0;entryDx=0;entryDy=0;fontColor=#727272;fillColor=#f5f5f5;strokeColor=#666666;" edge="1" parent="WIyWlLk6GJQsqaUBKTNV-1" source="D-rWgnDU7CSgSsyEETpr-1" target="D-rWgnDU7CSgSsyEETpr-3">
          <mxGeometry relative="1" as="geometry" />
        </mxCell>
        <mxCell id="D-rWgnDU7CSgSsyEETpr-1" value="Set UPID.PIR" style="rounded=1;whiteSpace=wrap;html=1;fillColor=#f5f5f5;fontColor=#727272;strokeColor=#666666;" vertex="1" parent="WIyWlLk6GJQsqaUBKTNV-1">
          <mxGeometry x="220" y="190" width="100" height="40" as="geometry" />
        </mxCell>
        <mxCell id="D-rWgnDU7CSgSsyEETpr-7" style="edgeStyle=orthogonalEdgeStyle;rounded=0;orthogonalLoop=1;jettySize=auto;html=1;exitX=0.5;exitY=1;exitDx=0;exitDy=0;entryX=0.5;entryY=0;entryDx=0;entryDy=0;fontColor=#727272;fillColor=#f5f5f5;strokeColor=#666666;" edge="1" parent="WIyWlLk6GJQsqaUBKTNV-1" source="D-rWgnDU7CSgSsyEETpr-3" target="D-rWgnDU7CSgSsyEETpr-6">
          <mxGeometry relative="1" as="geometry" />
        </mxCell>
        <mxCell id="D-rWgnDU7CSgSsyEETpr-3" value="&lt;font style=&quot;font-size: 14px;&quot;&gt;Send ordinary interrupt&lt;br&gt;&lt;/font&gt;" style="rounded=1;whiteSpace=wrap;html=1;fillColor=#f5f5f5;fontColor=#727272;strokeColor=#666666;" vertex="1" parent="WIyWlLk6GJQsqaUBKTNV-1">
          <mxGeometry x="220" y="280" width="100" height="60" as="geometry" />
        </mxCell>
        <mxCell id="D-rWgnDU7CSgSsyEETpr-5" value="&lt;font style=&quot;font-size: 14px;&quot;&gt;&lt;b&gt;If&lt;/b&gt;&lt;/font&gt; SN==ON==0" style="text;html=1;strokeColor=none;fillColor=none;align=center;verticalAlign=middle;whiteSpace=wrap;rounded=0;fontColor=#727272;" vertex="1" parent="WIyWlLk6GJQsqaUBKTNV-1">
          <mxGeometry x="280" y="240" width="110" height="30" as="geometry" />
        </mxCell>
        <mxCell id="D-rWgnDU7CSgSsyEETpr-12" style="edgeStyle=orthogonalEdgeStyle;rounded=0;orthogonalLoop=1;jettySize=auto;html=1;entryX=0.5;entryY=0;entryDx=0;entryDy=0;fontColor=#727272;fillColor=#f5f5f5;strokeColor=#666666;" edge="1" parent="WIyWlLk6GJQsqaUBKTNV-1" source="D-rWgnDU7CSgSsyEETpr-6" target="D-rWgnDU7CSgSsyEETpr-11">
          <mxGeometry relative="1" as="geometry" />
        </mxCell>
        <mxCell id="D-rWgnDU7CSgSsyEETpr-6" value="Copy UPID.PIR to tempPIR" style="rounded=1;whiteSpace=wrap;html=1;fillColor=#f5f5f5;fontColor=#727272;strokeColor=#666666;" vertex="1" parent="WIyWlLk6GJQsqaUBKTNV-1">
          <mxGeometry x="220" y="400" width="100" height="60" as="geometry" />
        </mxCell>
        <mxCell id="D-rWgnDU7CSgSsyEETpr-8" value="&lt;font style=&quot;font-size: 14px;&quot;&gt;&lt;b&gt;If&lt;/b&gt;&lt;/font&gt; APIC.V==UINV" style="text;html=1;strokeColor=none;fillColor=none;align=center;verticalAlign=middle;whiteSpace=wrap;rounded=0;fontColor=#727272;" vertex="1" parent="WIyWlLk6GJQsqaUBKTNV-1">
          <mxGeometry x="280" y="350" width="110" height="30" as="geometry" />
        </mxCell>
        <mxCell id="D-rWgnDU7CSgSsyEETpr-15" style="edgeStyle=orthogonalEdgeStyle;rounded=0;orthogonalLoop=1;jettySize=auto;html=1;fontColor=#727272;fillColor=#f5f5f5;strokeColor=#666666;" edge="1" parent="WIyWlLk6GJQsqaUBKTNV-1" source="D-rWgnDU7CSgSsyEETpr-11">
          <mxGeometry relative="1" as="geometry">
            <mxPoint x="270" y="650" as="targetPoint" />
          </mxGeometry>
        </mxCell>
        <mxCell id="D-rWgnDU7CSgSsyEETpr-11" value="&lt;div&gt;Copy tempPIR to&lt;/div&gt;&lt;div&gt;UIRR&lt;br&gt;&lt;/div&gt;" style="rounded=1;whiteSpace=wrap;html=1;fillColor=#f5f5f5;fontColor=#727272;strokeColor=#666666;" vertex="1" parent="WIyWlLk6GJQsqaUBKTNV-1">
          <mxGeometry x="220" y="520" width="100" height="60" as="geometry" />
        </mxCell>
        <mxCell id="D-rWgnDU7CSgSsyEETpr-14" value="&lt;font style=&quot;font-size: 14px;&quot;&gt;&lt;b&gt;If&lt;/b&gt;&lt;/font&gt; tempPIR=/=0" style="text;html=1;strokeColor=none;fillColor=none;align=center;verticalAlign=middle;whiteSpace=wrap;rounded=0;fontColor=#727272;" vertex="1" parent="WIyWlLk6GJQsqaUBKTNV-1">
          <mxGeometry x="280" y="470" width="110" height="30" as="geometry" />
        </mxCell>
        <mxCell id="D-rWgnDU7CSgSsyEETpr-16" value="&lt;div style=&quot;font-size: 14px;&quot;&gt;&lt;font style=&quot;font-size: 14px;&quot;&gt;&lt;b&gt;While&lt;/b&gt;&lt;/font&gt; UIRR=/=0&lt;/div&gt;&lt;div style=&quot;font-size: 14px;&quot;&gt;&lt;b&gt;If&lt;/b&gt; UIF=/=0 &amp;amp;&amp;amp; CPL==3&lt;br&gt;&lt;/div&gt;&lt;div&gt;&lt;br&gt;&lt;/div&gt;" style="text;html=1;strokeColor=none;fillColor=none;align=center;verticalAlign=middle;whiteSpace=wrap;rounded=0;fontColor=#727272;" vertex="1" parent="WIyWlLk6GJQsqaUBKTNV-1">
          <mxGeometry x="270" y="600" width="160" height="30" as="geometry" />
        </mxCell>
        <mxCell id="D-rWgnDU7CSgSsyEETpr-17" value="Delivery (Handler)" style="rounded=1;whiteSpace=wrap;html=1;fillColor=#dae8fc;strokeColor=#6c8ebf;fontColor=#727272;" vertex="1" parent="WIyWlLk6GJQsqaUBKTNV-1">
          <mxGeometry x="220" y="650" width="100" height="60" as="geometry" />
        </mxCell>
        <mxCell id="D-rWgnDU7CSgSsyEETpr-18" value="" style="shape=flexArrow;endArrow=classic;html=1;rounded=0;fillColor=#d5e8d4;strokeColor=#82b366;fontColor=#727272;" edge="1" parent="WIyWlLk6GJQsqaUBKTNV-1">
          <mxGeometry width="50" height="50" relative="1" as="geometry">
            <mxPoint x="420" y="210" as="sourcePoint" />
            <mxPoint x="389" y="250" as="targetPoint" />
          </mxGeometry>
        </mxCell>
        <mxCell id="D-rWgnDU7CSgSsyEETpr-20" value="Set UPID.SN" style="text;html=1;strokeColor=#6c8ebf;fillColor=#dae8fc;align=center;verticalAlign=middle;whiteSpace=wrap;rounded=1;fontColor=#727272;" vertex="1" parent="WIyWlLk6GJQsqaUBKTNV-1">
          <mxGeometry x="400" y="170" width="120" height="30" as="geometry" />
        </mxCell>
        <mxCell id="D-rWgnDU7CSgSsyEETpr-21" value="" style="rounded=1;whiteSpace=wrap;html=1;fillColor=#f5f5f5;fontColor=#727272;strokeColor=#666666;" vertex="1" parent="WIyWlLk6GJQsqaUBKTNV-1">
          <mxGeometry x="520" y="560" width="50" height="20" as="geometry" />
        </mxCell>
        <mxCell id="D-rWgnDU7CSgSsyEETpr-22" value="" style="rounded=1;whiteSpace=wrap;html=1;fillColor=#dae8fc;strokeColor=#6c8ebf;fontColor=#727272;" vertex="1" parent="WIyWlLk6GJQsqaUBKTNV-1">
          <mxGeometry x="520" y="600" width="50" height="20" as="geometry" />
        </mxCell>
        <mxCell id="D-rWgnDU7CSgSsyEETpr-23" value="Hardware" style="text;html=1;strokeColor=none;fillColor=none;align=center;verticalAlign=middle;whiteSpace=wrap;rounded=0;fontColor=#727272;" vertex="1" parent="WIyWlLk6GJQsqaUBKTNV-1">
          <mxGeometry x="580" y="555" width="60" height="30" as="geometry" />
        </mxCell>
        <mxCell id="D-rWgnDU7CSgSsyEETpr-24" value="Software" style="text;html=1;strokeColor=none;fillColor=none;align=center;verticalAlign=middle;whiteSpace=wrap;rounded=0;fontColor=#727272;" vertex="1" parent="WIyWlLk6GJQsqaUBKTNV-1">
          <mxGeometry x="580" y="595" width="60" height="30" as="geometry" />
        </mxCell>
        <mxCell id="D-rWgnDU7CSgSsyEETpr-25" value="" style="shape=flexArrow;endArrow=classic;html=1;rounded=0;fillColor=#d5e8d4;strokeColor=#82b366;fontColor=#727272;" edge="1" parent="WIyWlLk6GJQsqaUBKTNV-1">
          <mxGeometry width="50" height="50" relative="1" as="geometry">
            <mxPoint x="425.5" y="320" as="sourcePoint" />
            <mxPoint x="394.5" y="360" as="targetPoint" />
          </mxGeometry>
        </mxCell>
        <mxCell id="D-rWgnDU7CSgSsyEETpr-26" value="Set UINV" style="text;html=1;strokeColor=#6c8ebf;fillColor=#dae8fc;align=center;verticalAlign=middle;whiteSpace=wrap;rounded=1;fontColor=#727272;" vertex="1" parent="WIyWlLk6GJQsqaUBKTNV-1">
          <mxGeometry x="405.5" y="280" width="120" height="30" as="geometry" />
        </mxCell>
      </root>
    </mxGraphModel>
  </diagram>
</mxfile>
